<svg id="Layer_1" data-name="Layer 1" xmlns="http://www.w3.org/2000/svg" viewBox="0 0 512 512"><defs><style>.cls-1{fill:#6366f1;}</style></defs><title>jar-glyph</title><circle class="cls-1" cx="217.6" cy="275.2" r="12.8"/><path class="cls-1" d="M268.56,381.62a12.81,12.81,0,0,1,.24,2.38c0,12.49-5.54,19.42-9.21,24-2.69,3.36-3.59,4.49-3.59,8s.91,4.64,3.59,8c3.67,4.58,9.21,11.51,9.21,24a12.8,12.8,0,0,1-25.6,0c0-3.51-.91-4.64-3.59-8-3.67-4.58-9.21-11.51-9.21-24s5.54-19.42,9.21-24c2.69-3.36,3.59-4.49,3.59-8,0-.09,0-.18,0-.27a76.79,76.79,0,0,1-67.91-57.33H57.6v82.13A103.58,103.58,0,0,0,161.07,512H350.93A103.58,103.58,0,0,0,454.4,408.53V326.4H323.88A76.91,76.91,0,0,1,268.56,381.62ZM160,416a12.8,12.8,0,1,1,12.8-12.8A12.8,12.8,0,0,1,160,416Zm147.2,38.4A12.8,12.8,0,1,1,320,441.6,12.8,12.8,0,0,1,307.2,454.4Zm38.4-76.8a19.2,19.2,0,1,1-19.2,19.2A19.2,19.2,0,0,1,345.6,377.6Z"/><path class="cls-1" d="M384,119.6V101.75A32.05,32.05,0,0,0,409.6,70.4V32a32,32,0,0,0-32-32H134.4a32,32,0,0,0-32,32V70.4A32.05,32.05,0,0,0,128,101.75V119.6a102.82,102.82,0,0,0-70.4,98v83.2h119a51.16,51.16,0,1,0,58.89-69.05,76.51,76.51,0,0,1,90.58,69.05H454.4V217.6A102.82,102.82,0,0,0,384,119.6Zm-134.4,162A25.6,25.6,0,1,1,224,256,25.63,25.63,0,0,1,249.6,281.6Z"/></svg>